:FULLY-SPECIFIED
:FORCE-ALL-JOINTS-BE-3DOF
:DEGREES
713
root 5.54204 21.4575 7.04286 -124.175 -87.9386 139.835
lfemur -36.1642 -11.5559 11.2035
ltibia 75.3732 0 0
lfoot 7.50834 -8.53149 0
ltoes 31.0679 0 0
rfemur -31.544 0.758524 -0.131188
rtibia 85.7126 0 0
rfoot 19.6009 -20.5257 0
rtoes 40.0603 0 0
lowerback 6.18638 -1.5092 -2.1024
upperback -1.25413 -2.25578 -1.70103
thorax -4.81164 -1.096 -0.437686
lowerneck -6.7 -6.19821 -2.29106
upperneck 0.127743 -8.25479 5.10501
head 1.51835 -4.05037 1.70691
lclavicle 6.32616e-15 3.81279e-14 0
lhumerus 5.80648 -20.6921 13.3617
lradius 47.7662 0 0
lwrist 23.4186 0 0
lhand -22.2658 -3.62226 0
lfingers 7.12502 0 0
lthumb 4.15212 26.319 0
rclavicle 6.32616e-15 3.81279e-14 0
rhumerus -16.6743 -3.41473 -24.9462
rradius 100.372 0 0
rwrist -10.0528 0 0
rhand -27.0733 -34.7935 0
rfingers 7.12502 0 0
rthumb -0.490688 -784.762 0
714
root 5.52062 21.4999 7.39453 -132.283 -87.7354 148.298
lfemur -34.874 -12.9926 9.82075
ltibia 70.3643 0 0
lfoot 7.45008 -8.96653 0
ltoes 30.4363 0 0
rfemur -32.7961 -0.330872 -0.967583
rtibia 91.3562 0 0
rfoot 20.3701 -20.7345 0
rtoes 41.5497 0 0
lowerback 6.10874 -1.06846 -1.94887
upperback -1.28342 -1.65951 -1.6283
thorax -4.77907 -0.80093 -0.47181
lowerneck -6.79388 -6.31969 -2.36579
upperneck -0.152645 -8.39929 5.00443
head 1.4453 -4.13047 1.68254
lclavicle 9.556e-15 3.52641e-14 0
lhumerus 2.16399 -20.5576 15.0049
lradius 46.2014 0 0
lwrist 22.9828 0 0
lhand -22.2245 -3.47272 0
lfingers 7.12502 0 0
lthumb 4.19201 26.4663 0
rclavicle 9.556e-15 3.52641e-14 0
rhumerus -13.9783 -2.68733 -26.2516
rradius 99.7817 0 0
rwrist -9.98696 0 0
rhand -26.7877 -34.3801 0
rfingers 7.12502 0 0
rthumb -0.214987 -784.355 0
715
root 5.49097 21.5295 7.79601 -140.605 -87.2103 157.04
lfemur -33.5571 -14.4896 8.51967
ltibia 65.1241 0 0
lfoot 7.43438 -9.44215 0
ltoes 29.8338 0 0
rfemur -33.8349 -1.58686 -1.91882
rtibia 97.0122 0 0
rfoot 21.3635 -20.6634 0
rtoes 42.9309 0 0
lowerback 5.99658 -0.553404 -1.77502
upperback -1.3238 -0.963173 -1.56773
thorax -4.7355 -0.456483 -0.530585
lowerneck -6.88249 -6.45178 -2.43303
upperneck -0.433777 -8.5592 4.89979
head 1.37063 -4.21848 1.65523
lclavicle 1.2921e-14 3.18055e-14 0
lhumerus -1.77093 -20.2407 16.623
lradius 44.6521 0 0
lwrist 22.5382 0 0
lhand -22.2191 -3.35407 0
lfingers 7.12502 0 0
lthumb 4.19717 26.5843 0
rclavicle 1.2921e-14 3.18055e-14 0
rhumerus -10.8552 -1.84384 -27.5558
rradius 99.2563 0 0
rwrist -9.86977 0 0
rhand -26.5547 -33.9151 0
rfingers 7.12502 0 0
rthumb 0.0100137 -783.895 0
716
root 5.45835 21.5451 8.19561 -148.362 -86.4596 165.247
lfemur -32.2476 -15.9615 7.38124
ltibia 59.9481 0 0
lfoot 7.54402 -9.97168 0
ltoes 29.2724 0 0
rfemur -34.6456 -2.91799 -2.92993
rtibia 102.355 0 0
rfoot 22.465 -20.3069 0
rtoes 44.0842 0 0
lowerback 5.8447 -0.0119389 -1.58124
upperback -1.37705 -0.230798 -1.51305
thorax -4.6803 -0.0946489 -0.605126
lowerneck -6.97138 -6.57833 -2.48429
upperneck -0.694789 -8.71466 4.7882
head 1.30098 -4.30421 1.62299
lclavicle 1.63537e-14 2.79146e-14 0
lhumerus -5.71308 -19.8709 18.1094
lradius 43.2452 0 0
lwrist 22.1397 0 0
lhand -22.2149 -3.25679 0
lfingers 7.12502 0 0
lthumb 4.20124 26.6818 0
rclavicle 1.63537e-14 2.79146e-14 0
rhumerus -7.52394 -1.06443 -28.6831
rradius 98.7859 0 0
rwrist -9.75994 0 0
rhand -26.4099 -33.4841 0
rfingers 7.12502 0 0
rthumb 0.14979 -783.469 0
717
root 5.42812 21.5458 8.54197 -154.827 -85.5828 172.157
lfemur -30.9788 -17.3152 6.45568
ltibia 55.1247 0 0
lfoot 7.83862 -10.5573 0
ltoes 28.7517 0 0
rfemur -35.2441 -4.22986 -3.92977
rtibia 107.094 0 0
rfoot 23.5366 -19.693 0
rtoes 44.911 0 0
lowerback 5.65177 0.504577 -1.37071
upperback -1.44327 0.468925 -1.4571
thorax -4.61357 0.250333 -0.684393
lowerneck -7.06632 -6.684 -2.51268
upperneck -0.917333 -8.84649 4.66756
head 1.24241 -4.37781 1.58438
lclavicle 1.97717e-14 2.37986e-14 0
lhumerus -9.38398 -19.5908 19.3957
lradius 42.0974 0 0
lwrist 21.8356 0 0
lhand -22.1764 -3.16879 0
lfingers 7.12502 0 0
lthumb 4.23845 26.7698 0
rclavicle 1.97717e-14 2.37986e-14 0
rhumerus -4.23683 -0.514207 -29.4955
rradius 98.3465 0 0
rwrist -9.71439 0 0
rhand -26.3764 -33.1677 0
rfingers 7.12502 0 0
rthumb 0.182168 -783.156 0
718
root 5.39974 21.5316 8.84056 -160.1 -84.5712 177.868
lfemur -29.7555 -18.5471 5.71895
ltibia 50.6424 0 0
lfoot 8.28888 -11.1854 0
ltoes 28.2662 0 0
rfemur -35.6456 -5.52509 -4.90867
rtibia 111.262 0 0
rfoot 24.5741 -18.8467 0
rtoes 45.435 0 0
lowerback 5.42228 0.997425 -1.1467
upperback -1.52064 1.1376 -1.40081
thorax -4.53627 0.579355 -0.767863
lowerneck -7.16584 -6.77093 -2.5202
upperneck -1.10433 -8.95714 4.53975
head 1.19402 -4.44046 1.54029
lclavicle 2.31491e-14 1.94901e-14 0
lhumerus -12.8032 -19.3906 20.5125
lradius 41.1933 0 0
lwrist 21.6157 0 0
lhand -22.1088 -3.09077 0
lfingers 7.12502 0 0
lthumb 4.30367 26.8476 0
rclavicle 2.31491e-14 1.94901e-14 0
rhumerus -1.00623 -0.160291 -30.0368
rradius 97.9341 0 0
rwrist -9.72329 0 0
rhand -26.4412 -32.9526 0
rfingers 7.12502 0 0
rthumb 0.119566 -782.945 0
